<mxfile host="65bd71144e" modified="2020-10-22T10:06:40.145Z" agent="5.0 (Windows NT 10.0; Win64; x64) AppleWebKit/537.36 (KHTML, like Gecko) Code/1.50.1 Chrome/83.0.4103.122 Electron/9.2.1 Safari/537.36" etag="TMII_4J_AXl3UCap7eVN" version="13.6.5">
    <diagram id="cxP6G-qtAV26YzTyol4L" name="Page-1">
        <mxGraphModel dx="1397" dy="460" grid="1" gridSize="10" guides="1" tooltips="1" connect="1" arrows="1" fold="1" page="1" pageScale="1" pageWidth="827" pageHeight="1169" math="0" shadow="0">
            <root>
                <mxCell id="0"/>
                <mxCell id="1" parent="0"/>
                <mxCell id="3" value="" style="rounded=0;whiteSpace=wrap;html=1;" parent="1" vertex="1">
                    <mxGeometry x="340" y="250" width="240" height="270" as="geometry"/>
                </mxCell>
                <mxCell id="4" value="&lt;font color=&quot;#000000&quot;&gt;&lt;span style=&quot;font-size: 14px&quot;&gt;&lt;b&gt;Users&lt;/b&gt;&lt;/span&gt;&lt;/font&gt;" style="rounded=0;whiteSpace=wrap;html=1;fillColor=#ACB2CF;" parent="1" vertex="1">
                    <mxGeometry x="340" y="250" width="240" height="30" as="geometry"/>
                </mxCell>
                <mxCell id="5" value="&lt;span style=&quot;font-size: 13px&quot;&gt;&lt;b&gt;&lt;font color=&quot;#9ea8ff&quot;&gt;user_id INT AUTO_INCREMENT&lt;/font&gt;&lt;/b&gt;&lt;/span&gt;" style="rounded=0;whiteSpace=wrap;html=1;strokeColor=#9EA8FF;fillColor=#20202A;" parent="1" vertex="1">
                    <mxGeometry x="340" y="280" width="240" height="30" as="geometry"/>
                </mxCell>
                <mxCell id="6" value="&lt;font color=&quot;#ffffff&quot;&gt;&lt;span style=&quot;font-size: 13px&quot;&gt;&lt;b&gt;username VARCHAR(30) UNIQUE&lt;/b&gt;&lt;/span&gt;&lt;/font&gt;" style="rounded=0;whiteSpace=wrap;html=1;fillColor=none;strokeColor=#F0F0F0;" parent="1" vertex="1">
                    <mxGeometry x="340" y="310" width="240" height="30" as="geometry"/>
                </mxCell>
                <mxCell id="8" value="&lt;font color=&quot;#ffffff&quot;&gt;&lt;span style=&quot;font-size: 13px&quot;&gt;&lt;b&gt;name VARCHAR(20)&lt;/b&gt;&lt;/span&gt;&lt;/font&gt;" style="rounded=0;whiteSpace=wrap;html=1;fillColor=none;strokeColor=#F0F0F0;" parent="1" vertex="1">
                    <mxGeometry x="340" y="340" width="240" height="30" as="geometry"/>
                </mxCell>
                <mxCell id="9" value="&lt;font color=&quot;#ffffff&quot;&gt;&lt;span style=&quot;font-size: 13px&quot;&gt;&lt;b&gt;lastname VARCHAR(30)&lt;/b&gt;&lt;/span&gt;&lt;/font&gt;" style="rounded=0;whiteSpace=wrap;html=1;fillColor=none;strokeColor=#F0F0F0;" parent="1" vertex="1">
                    <mxGeometry x="340" y="370" width="240" height="30" as="geometry"/>
                </mxCell>
                <mxCell id="10" value="&lt;font color=&quot;#ffffff&quot;&gt;&lt;span style=&quot;font-size: 13px&quot;&gt;&lt;b&gt;email VARCHAR(70) UNIQUE&lt;/b&gt;&lt;/span&gt;&lt;/font&gt;" style="rounded=0;whiteSpace=wrap;html=1;fillColor=none;strokeColor=#F0F0F0;" parent="1" vertex="1">
                    <mxGeometry x="340" y="430" width="240" height="30" as="geometry"/>
                </mxCell>
                <mxCell id="11" value="&lt;font color=&quot;#ffffff&quot;&gt;&lt;span style=&quot;font-size: 13px&quot;&gt;&lt;b&gt;password VARCHAR(255)&lt;/b&gt;&lt;/span&gt;&lt;/font&gt;" style="rounded=0;whiteSpace=wrap;html=1;fillColor=none;strokeColor=#F0F0F0;" parent="1" vertex="1">
                    <mxGeometry x="340" y="460" width="240" height="30" as="geometry"/>
                </mxCell>
                <mxCell id="13" value="" style="rounded=0;whiteSpace=wrap;html=1;" parent="1" vertex="1">
                    <mxGeometry x="640" y="250" width="240" height="180" as="geometry"/>
                </mxCell>
                <mxCell id="14" value="&lt;font color=&quot;#000000&quot;&gt;&lt;span style=&quot;font-size: 14px&quot;&gt;&lt;b&gt;Posts&lt;/b&gt;&lt;/span&gt;&lt;/font&gt;" style="rounded=0;whiteSpace=wrap;html=1;fillColor=#ACB2CF;" parent="1" vertex="1">
                    <mxGeometry x="640" y="250" width="240" height="30" as="geometry"/>
                </mxCell>
                <mxCell id="15" value="&lt;span style=&quot;font-size: 13px&quot;&gt;&lt;b&gt;&lt;font color=&quot;#9ea8ff&quot;&gt;post_id INT AUTO_INCREMENT&lt;/font&gt;&lt;/b&gt;&lt;/span&gt;" style="rounded=0;whiteSpace=wrap;html=1;strokeColor=#9EA8FF;fillColor=#20202A;" parent="1" vertex="1">
                    <mxGeometry x="640" y="280" width="240" height="30" as="geometry"/>
                </mxCell>
                <mxCell id="21" style="edgeStyle=orthogonalEdgeStyle;rounded=0;orthogonalLoop=1;jettySize=auto;html=1;entryX=1;entryY=0.5;entryDx=0;entryDy=0;" parent="1" source="16" target="5" edge="1">
                    <mxGeometry relative="1" as="geometry"/>
                </mxCell>
                <mxCell id="16" value="&lt;span style=&quot;font-size: 13px&quot;&gt;&lt;b&gt;&lt;font color=&quot;#ffe3a1&quot;&gt;user_id INT&lt;/font&gt;&lt;/b&gt;&lt;/span&gt;" style="rounded=0;whiteSpace=wrap;html=1;fillColor=none;strokeColor=#FFE3A1;" parent="1" vertex="1">
                    <mxGeometry x="640" y="310" width="240" height="30" as="geometry"/>
                </mxCell>
                <mxCell id="17" value="&lt;font color=&quot;#ffffff&quot;&gt;&lt;span style=&quot;font-size: 13px&quot;&gt;&lt;b&gt;title VARCHAR(100)&lt;/b&gt;&lt;/span&gt;&lt;/font&gt;" style="rounded=0;whiteSpace=wrap;html=1;fillColor=none;strokeColor=#F0F0F0;" parent="1" vertex="1">
                    <mxGeometry x="640" y="340" width="240" height="30" as="geometry"/>
                </mxCell>
                <mxCell id="18" value="&lt;font color=&quot;#ffffff&quot;&gt;&lt;span style=&quot;font-size: 13px&quot;&gt;&lt;b&gt;body LONGTEXT&lt;/b&gt;&lt;/span&gt;&lt;/font&gt;" style="rounded=0;whiteSpace=wrap;html=1;fillColor=none;strokeColor=#F0F0F0;" parent="1" vertex="1">
                    <mxGeometry x="640" y="370" width="240" height="30" as="geometry"/>
                </mxCell>
                <mxCell id="19" value="&lt;font color=&quot;#ffffff&quot;&gt;&lt;span style=&quot;font-size: 13px&quot;&gt;&lt;b&gt;views INT&lt;/b&gt;&lt;/span&gt;&lt;/font&gt;" style="rounded=0;whiteSpace=wrap;html=1;fillColor=none;strokeColor=#F0F0F0;" parent="1" vertex="1">
                    <mxGeometry x="640" y="400" width="240" height="30" as="geometry"/>
                </mxCell>
                <mxCell id="22" value="" style="rounded=0;whiteSpace=wrap;html=1;" parent="1" vertex="1">
                    <mxGeometry x="940" y="250" width="240" height="120" as="geometry"/>
                </mxCell>
                <mxCell id="23" value="&lt;font color=&quot;#000000&quot;&gt;&lt;span style=&quot;font-size: 14px&quot;&gt;&lt;b&gt;Images&lt;/b&gt;&lt;/span&gt;&lt;/font&gt;" style="rounded=0;whiteSpace=wrap;html=1;fillColor=#ACB2CF;" parent="1" vertex="1">
                    <mxGeometry x="940" y="250" width="240" height="30" as="geometry"/>
                </mxCell>
                <mxCell id="24" value="&lt;span style=&quot;font-size: 13px&quot;&gt;&lt;b&gt;&lt;font color=&quot;#9ea8ff&quot;&gt;image_id INT AUTO_INCREMENT&lt;/font&gt;&lt;/b&gt;&lt;/span&gt;" style="rounded=0;whiteSpace=wrap;html=1;strokeColor=#9EA8FF;fillColor=#20202A;" parent="1" vertex="1">
                    <mxGeometry x="940" y="280" width="240" height="30" as="geometry"/>
                </mxCell>
                <mxCell id="29" style="edgeStyle=orthogonalEdgeStyle;rounded=0;orthogonalLoop=1;jettySize=auto;html=1;entryX=1;entryY=0.5;entryDx=0;entryDy=0;" parent="1" source="25" target="15" edge="1">
                    <mxGeometry relative="1" as="geometry"/>
                </mxCell>
                <mxCell id="25" value="&lt;span style=&quot;font-size: 13px&quot;&gt;&lt;b&gt;&lt;font color=&quot;#ffe3a1&quot;&gt;post_id INT&lt;/font&gt;&lt;/b&gt;&lt;/span&gt;" style="rounded=0;whiteSpace=wrap;html=1;fillColor=none;strokeColor=#FFE3A1;" parent="1" vertex="1">
                    <mxGeometry x="940" y="310" width="240" height="30" as="geometry"/>
                </mxCell>
                <mxCell id="26" value="&lt;font color=&quot;#ffffff&quot;&gt;&lt;span style=&quot;font-size: 13px&quot;&gt;&lt;b&gt;filename VARCHAR(255)&lt;/b&gt;&lt;/span&gt;&lt;/font&gt;" style="rounded=0;whiteSpace=wrap;html=1;fillColor=none;strokeColor=#F0F0F0;" parent="1" vertex="1">
                    <mxGeometry x="940" y="340" width="240" height="30" as="geometry"/>
                </mxCell>
                <mxCell id="44" value="" style="rounded=0;whiteSpace=wrap;html=1;" parent="1" vertex="1">
                    <mxGeometry x="640" y="450" width="240" height="150" as="geometry"/>
                </mxCell>
                <mxCell id="45" value="&lt;font color=&quot;#000000&quot;&gt;&lt;span style=&quot;font-size: 14px&quot;&gt;&lt;b&gt;Comments&lt;/b&gt;&lt;/span&gt;&lt;/font&gt;" style="rounded=0;whiteSpace=wrap;html=1;fillColor=#ACB2CF;" parent="1" vertex="1">
                    <mxGeometry x="640" y="450" width="240" height="30" as="geometry"/>
                </mxCell>
                <mxCell id="46" value="&lt;span style=&quot;font-size: 13px&quot;&gt;&lt;b&gt;&lt;font color=&quot;#9ea8ff&quot;&gt;comment_id INT AUTO_INCREMENT&lt;/font&gt;&lt;/b&gt;&lt;/span&gt;" style="rounded=0;whiteSpace=wrap;html=1;strokeColor=#9EA8FF;fillColor=#20202A;" parent="1" vertex="1">
                    <mxGeometry x="640" y="480" width="240" height="30" as="geometry"/>
                </mxCell>
                <mxCell id="52" value="" style="edgeStyle=orthogonalEdgeStyle;rounded=0;orthogonalLoop=1;jettySize=auto;html=1;entryX=1;entryY=0.5;entryDx=0;entryDy=0;" parent="1" source="47" target="5" edge="1">
                    <mxGeometry relative="1" as="geometry">
                        <Array as="points">
                            <mxPoint x="610" y="555"/>
                            <mxPoint x="610" y="295"/>
                        </Array>
                    </mxGeometry>
                </mxCell>
                <mxCell id="47" value="&lt;span style=&quot;font-size: 13px&quot;&gt;&lt;b&gt;&lt;font color=&quot;#ffe3a1&quot;&gt;user_id INT&lt;/font&gt;&lt;/b&gt;&lt;/span&gt;" style="rounded=0;whiteSpace=wrap;html=1;fillColor=none;strokeColor=#FFE3A1;" parent="1" vertex="1">
                    <mxGeometry x="640" y="540" width="240" height="30" as="geometry"/>
                </mxCell>
                <mxCell id="49" value="&lt;font color=&quot;#ffffff&quot;&gt;&lt;span style=&quot;font-size: 13px&quot;&gt;&lt;b&gt;body LONGTEXT&lt;/b&gt;&lt;/span&gt;&lt;/font&gt;" style="rounded=0;whiteSpace=wrap;html=1;fillColor=none;strokeColor=#F0F0F0;" parent="1" vertex="1">
                    <mxGeometry x="640" y="570" width="240" height="30" as="geometry"/>
                </mxCell>
                <mxCell id="53" style="edgeStyle=orthogonalEdgeStyle;rounded=0;orthogonalLoop=1;jettySize=auto;html=1;entryX=1;entryY=0.5;entryDx=0;entryDy=0;" parent="1" source="51" target="15" edge="1">
                    <mxGeometry relative="1" as="geometry">
                        <Array as="points">
                            <mxPoint x="910" y="525"/>
                            <mxPoint x="910" y="295"/>
                        </Array>
                    </mxGeometry>
                </mxCell>
                <mxCell id="51" value="&lt;span style=&quot;font-size: 13px&quot;&gt;&lt;b&gt;&lt;font color=&quot;#ffe3a1&quot;&gt;post_id INT&lt;/font&gt;&lt;/b&gt;&lt;/span&gt;" style="rounded=0;whiteSpace=wrap;html=1;fillColor=none;strokeColor=#FFE3A1;" parent="1" vertex="1">
                    <mxGeometry x="640" y="510" width="240" height="30" as="geometry"/>
                </mxCell>
                <mxCell id="54" value="" style="rounded=0;whiteSpace=wrap;html=1;" parent="1" vertex="1">
                    <mxGeometry x="640" y="80" width="240" height="150" as="geometry"/>
                </mxCell>
                <mxCell id="55" value="&lt;font color=&quot;#000000&quot;&gt;&lt;span style=&quot;font-size: 14px&quot;&gt;&lt;b&gt;Reactions&lt;/b&gt;&lt;/span&gt;&lt;/font&gt;" style="rounded=0;whiteSpace=wrap;html=1;fillColor=#ACB2CF;" parent="1" vertex="1">
                    <mxGeometry x="640" y="80" width="240" height="30" as="geometry"/>
                </mxCell>
                <mxCell id="56" value="&lt;span style=&quot;font-size: 13px&quot;&gt;&lt;b&gt;&lt;font color=&quot;#9ea8ff&quot;&gt;reaction_id INT AUTO_INCREMENT&lt;/font&gt;&lt;/b&gt;&lt;/span&gt;" style="rounded=0;whiteSpace=wrap;html=1;strokeColor=#9EA8FF;fillColor=#20202A;" parent="1" vertex="1">
                    <mxGeometry x="640" y="110" width="240" height="30" as="geometry"/>
                </mxCell>
                <mxCell id="61" style="edgeStyle=orthogonalEdgeStyle;rounded=0;orthogonalLoop=1;jettySize=auto;html=1;entryX=1;entryY=0.5;entryDx=0;entryDy=0;" parent="1" source="57" target="5" edge="1">
                    <mxGeometry relative="1" as="geometry">
                        <Array as="points">
                            <mxPoint x="610" y="155"/>
                            <mxPoint x="610" y="295"/>
                        </Array>
                    </mxGeometry>
                </mxCell>
                <mxCell id="57" value="&lt;span style=&quot;font-size: 13px&quot;&gt;&lt;b&gt;&lt;font color=&quot;#ffe3a1&quot;&gt;user_id INT&lt;/font&gt;&lt;/b&gt;&lt;/span&gt;" style="rounded=0;whiteSpace=wrap;html=1;fillColor=none;strokeColor=#FFE3A1;" parent="1" vertex="1">
                    <mxGeometry x="640" y="140" width="240" height="30" as="geometry"/>
                </mxCell>
                <mxCell id="58" value="&lt;font color=&quot;#ffffff&quot;&gt;&lt;span style=&quot;font-size: 13px&quot;&gt;&lt;b&gt;body LONGTEXT&lt;/b&gt;&lt;/span&gt;&lt;/font&gt;" style="rounded=0;whiteSpace=wrap;html=1;fillColor=none;strokeColor=#F0F0F0;" parent="1" vertex="1">
                    <mxGeometry x="640" y="200" width="240" height="30" as="geometry"/>
                </mxCell>
                <mxCell id="60" style="edgeStyle=orthogonalEdgeStyle;rounded=0;orthogonalLoop=1;jettySize=auto;html=1;entryX=1;entryY=0.5;entryDx=0;entryDy=0;" parent="1" source="59" target="15" edge="1">
                    <mxGeometry relative="1" as="geometry">
                        <Array as="points">
                            <mxPoint x="910" y="185"/>
                            <mxPoint x="910" y="295"/>
                        </Array>
                    </mxGeometry>
                </mxCell>
                <mxCell id="59" value="&lt;span style=&quot;font-size: 13px&quot;&gt;&lt;b&gt;&lt;font color=&quot;#ffe3a1&quot;&gt;post_id INT&lt;/font&gt;&lt;/b&gt;&lt;/span&gt;" style="rounded=0;whiteSpace=wrap;html=1;fillColor=none;strokeColor=#FFE3A1;" parent="1" vertex="1">
                    <mxGeometry x="640" y="170" width="240" height="30" as="geometry"/>
                </mxCell>
                <mxCell id="62" value="" style="rounded=0;whiteSpace=wrap;html=1;" parent="1" vertex="1">
                    <mxGeometry x="940" y="385" width="240" height="120" as="geometry"/>
                </mxCell>
                <mxCell id="63" value="&lt;font color=&quot;#000000&quot;&gt;&lt;span style=&quot;font-size: 14px&quot;&gt;&lt;b&gt;Categories&lt;/b&gt;&lt;/span&gt;&lt;/font&gt;" style="rounded=0;whiteSpace=wrap;html=1;fillColor=#ACB2CF;" parent="1" vertex="1">
                    <mxGeometry x="940" y="385" width="240" height="30" as="geometry"/>
                </mxCell>
                <mxCell id="64" value="&lt;span style=&quot;font-size: 13px&quot;&gt;&lt;b&gt;&lt;font color=&quot;#9ea8ff&quot;&gt;category_id INT AUTO_INCREMENT&lt;/font&gt;&lt;/b&gt;&lt;/span&gt;" style="rounded=0;whiteSpace=wrap;html=1;strokeColor=#9EA8FF;fillColor=#20202A;" parent="1" vertex="1">
                    <mxGeometry x="940" y="415" width="240" height="30" as="geometry"/>
                </mxCell>
                <mxCell id="68" style="edgeStyle=orthogonalEdgeStyle;rounded=0;orthogonalLoop=1;jettySize=auto;html=1;entryX=1;entryY=0.5;entryDx=0;entryDy=0;" parent="1" source="65" target="15" edge="1">
                    <mxGeometry relative="1" as="geometry">
                        <Array as="points">
                            <mxPoint x="910" y="460"/>
                            <mxPoint x="910" y="295"/>
                        </Array>
                    </mxGeometry>
                </mxCell>
                <mxCell id="65" value="&lt;span style=&quot;font-size: 13px&quot;&gt;&lt;b&gt;&lt;font color=&quot;#ffe3a1&quot;&gt;post_id INT&lt;/font&gt;&lt;/b&gt;&lt;/span&gt;" style="rounded=0;whiteSpace=wrap;html=1;fillColor=none;strokeColor=#FFE3A1;" parent="1" vertex="1">
                    <mxGeometry x="940" y="445" width="240" height="30" as="geometry"/>
                </mxCell>
                <mxCell id="66" value="&lt;font color=&quot;#ffffff&quot;&gt;&lt;span style=&quot;font-size: 13px&quot;&gt;&lt;b&gt;category VARCHAR(20)&lt;/b&gt;&lt;/span&gt;&lt;/font&gt;" style="rounded=0;whiteSpace=wrap;html=1;fillColor=none;strokeColor=#F0F0F0;" parent="1" vertex="1">
                    <mxGeometry x="940" y="475" width="240" height="30" as="geometry"/>
                </mxCell>
                <mxCell id="81" value="" style="rounded=0;whiteSpace=wrap;html=1;" parent="1" vertex="1">
                    <mxGeometry x="44" y="250" width="240" height="120" as="geometry"/>
                </mxCell>
                <mxCell id="82" value="&lt;font color=&quot;#000000&quot;&gt;&lt;span style=&quot;font-size: 14px&quot;&gt;&lt;b&gt;Followers&lt;/b&gt;&lt;/span&gt;&lt;/font&gt;" style="rounded=0;whiteSpace=wrap;html=1;fillColor=#ACB2CF;" parent="1" vertex="1">
                    <mxGeometry x="44" y="250" width="240" height="30" as="geometry"/>
                </mxCell>
                <mxCell id="83" value="&lt;span style=&quot;font-size: 13px&quot;&gt;&lt;b&gt;&lt;font color=&quot;#9ea8ff&quot;&gt;follower_id INT AUTO_INCREMENT&lt;/font&gt;&lt;/b&gt;&lt;/span&gt;" style="rounded=0;whiteSpace=wrap;html=1;strokeColor=#9EA8FF;fillColor=#20202A;" parent="1" vertex="1">
                    <mxGeometry x="44" y="280" width="240" height="30" as="geometry"/>
                </mxCell>
                <mxCell id="85" value="&lt;font color=&quot;#ffffff&quot;&gt;&lt;span style=&quot;font-size: 13px&quot;&gt;&lt;b&gt;following INT&lt;/b&gt;&lt;/span&gt;&lt;/font&gt;" style="rounded=0;whiteSpace=wrap;html=1;fillColor=none;strokeColor=#F0F0F0;" parent="1" vertex="1">
                    <mxGeometry x="44" y="340" width="240" height="30" as="geometry"/>
                </mxCell>
                <mxCell id="87" style="edgeStyle=orthogonalEdgeStyle;orthogonalLoop=1;jettySize=auto;html=1;entryX=0;entryY=0.5;entryDx=0;entryDy=0;rounded=0;" parent="1" source="86" target="5" edge="1">
                    <mxGeometry relative="1" as="geometry"/>
                </mxCell>
                <mxCell id="86" value="&lt;span style=&quot;font-size: 13px&quot;&gt;&lt;b&gt;&lt;font color=&quot;#ffe3a1&quot;&gt;user_id INT&lt;/font&gt;&lt;/b&gt;&lt;/span&gt;" style="rounded=0;whiteSpace=wrap;html=1;fillColor=none;strokeColor=#FFE3A1;" parent="1" vertex="1">
                    <mxGeometry x="44" y="310" width="240" height="30" as="geometry"/>
                </mxCell>
                <mxCell id="88" value="&lt;font color=&quot;#ffffff&quot;&gt;&lt;span style=&quot;font-size: 13px&quot;&gt;&lt;b&gt;picture_filename VARCHAR(255)&lt;/b&gt;&lt;/span&gt;&lt;/font&gt;" style="rounded=0;whiteSpace=wrap;html=1;fillColor=none;strokeColor=#F0F0F0;" parent="1" vertex="1">
                    <mxGeometry x="340" y="490" width="240" height="30" as="geometry"/>
                </mxCell>
                <mxCell id="99" value="&lt;font color=&quot;#ffffff&quot;&gt;&lt;span style=&quot;font-size: 13px&quot;&gt;&lt;b&gt;description VARCHAR(255)&lt;/b&gt;&lt;/span&gt;&lt;/font&gt;" style="rounded=0;whiteSpace=wrap;html=1;fillColor=none;strokeColor=#F0F0F0;" parent="1" vertex="1">
                    <mxGeometry x="340" y="400" width="240" height="30" as="geometry"/>
                </mxCell>
            </root>
        </mxGraphModel>
    </diagram>
</mxfile>